<?xml version="1.0" encoding="UTF-8" standalone="no"?>
<!-- Created with Inkscape (http://www.inkscape.org/) -->

<svg
   width="272.60236mm"
   height="43.56868mm"
   viewBox="0 0 272.60236 43.56868"
   version="1.1"
   id="svg1"
   inkscape:version="1.3 (0e150ed6c4, 2023-07-21)"
   sodipodi:docname="gestaltarts.svg"
   xmlns:inkscape="http://www.inkscape.org/namespaces/inkscape"
   xmlns:sodipodi="http://sodipodi.sourceforge.net/DTD/sodipodi-0.dtd"
   xmlns="http://www.w3.org/2000/svg"
   xmlns:svg="http://www.w3.org/2000/svg">
  <sodipodi:namedview
     id="namedview1"
     pagecolor="#ffffff"
     bordercolor="#000000"
     borderopacity="0.25"
     inkscape:showpageshadow="2"
     inkscape:pageopacity="0.0"
     inkscape:pagecheckerboard="0"
     inkscape:deskcolor="#d1d1d1"
     inkscape:document-units="mm"
     inkscape:zoom="0.72604517"
     inkscape:cx="433.16864"
     inkscape:cy="444.18724"
     inkscape:window-width="1920"
     inkscape:window-height="1018"
     inkscape:window-x="0"
     inkscape:window-y="0"
     inkscape:window-maximized="1"
     inkscape:current-layer="g3" />
  <defs
     id="defs1" />
  <g
     inkscape:label="Layer 1"
     inkscape:groupmode="layer"
     id="layer1"
     transform="translate(9.2988614,-30.899398)">
    <g
       id="text1"
       style="font-size:66.2138px;font-family:'Briem Handwriting';-inkscape-font-specification:'Briem Handwriting';fill:#800000;stroke-width:1.37946"
       aria-label="Gestalt Arts">
      <g
         id="g3"
         transform="translate(0.81424463,-36.122853)">
        <path
           style="fill:#d70a53;fill-opacity:1"
           d="m 30.60838,93.309129 q 0,-0.595924 -0.132427,-1.522917 -0.06621,-0.926994 -0.331069,-2.185056 -0.397283,-2.582338 -2.449911,-5.495745 -2.118841,-2.979621 -4.237683,-4.171469 -0.06621,-0.06621 -0.06621,-0.264856 0,0.06621 0,-0.06621 0.06621,-0.132428 0.132428,-0.463497 1.456703,-1.324276 2.516124,-2.317483 1.125635,-0.993207 1.9202,-1.655345 0.264856,-0.06621 0.264856,-0.397283 0,-0.132427 -0.926994,-1.258062 -0.463496,-0.52971 -0.728351,-0.860779 Q 26.304487,72.319358 26.17206,72.18693 24.78157,70.001875 24.053218,67.81682 H 23.39108 q -3.376903,4.171469 -5.164676,5.959241 3.376904,4.237683 3.774187,5.694387 -5.760601,4.634966 -7.283518,5.164676 -3.641759,-6.025455 -3.641759,-9.203718 L 11.53881,73.57742 q 0.132428,-0.463497 0.794566,-1.258062 0.662138,-0.86078 1.059421,-0.86078 0.264855,0 1.9202,1.059421 1.787772,0.993207 1.9202,0.993207 0.264855,0 0.662138,-0.397283 0.463497,-0.463496 0.463497,-0.794565 0,-0.463497 -1.456704,-1.324276 -1.787773,-0.993207 -1.9202,-1.125635 1.522917,-1.522917 1.522917,-1.853986 0,-0.860779 -1.059421,-0.860779 -0.728351,0 -1.853986,0.860779 -1.191848,0.794565 -1.39049,0.794565 -0.331069,0 -0.860779,-0.132427 Q 10.876668,68.545168 10.280744,68.412741 9.68482,68.214099 9.1551096,68.081672 8.6253992,67.949244 8.2943302,67.949244 q -5.1646763,0 -7.0848764,0.662138 -5.4957453,1.986414 -8.6077938,7.680801 -2.714766,5.032248 -2.714766,11.322559 0,6.224097 1.8539866,10.594208 0.331069,0.794566 0.5297104,1.39049 0.1986414,0.59592 0.331069,0.92699 3.2444761,6.15789 12.1833389,8.87265 2.0526277,0.59593 2.7147657,0.59593 l 2.8471934,0.13242 h 2.78098 q 1.655344,0 5.893028,-1.25806 6.621379,-2.05263 9.733428,-8.1443 1.853986,-3.641755 1.853986,-7.415941 z m -6.687593,1.721559 q 0,0.926993 -0.728352,4.767393 -0.132428,0.331069 -0.264855,0.595929 -0.06621,0.19864 -0.198642,0.39728 -1.258062,3.64176 -4.436324,5.69438 -0.463497,0.26486 -3.840401,0.99321 -2.714765,0.59593 -1.655344,0.59593 -0.132428,0 -0.198642,-0.0662 h -0.198641 q -0.264855,0 -0.331069,-0.0662 -3.6417592,0.33107 -7.5483733,-2.31748 -3.90661411,-2.64856 -5.03224869,-6.157888 -0.26485519,-0.860779 -0.46349659,-1.39049 -0.19864142,-0.595924 -0.33106902,-0.926993 -0.4634966,-2.118841 -0.7945656,-3.707972 -0.2648551,-1.589132 -0.5297103,-2.714766 -0.3972828,-2.185056 -0.3972828,-4.105256 0,-0.728351 0,-1.853986 0.066214,-1.191848 0.1324276,-2.714766 0.066214,-3.443117 2.38369671,-6.820021 2.25126919,-3.443118 5.36331769,-4.436325 1.7877726,-0.595924 4.4363245,-0.595924 0.3972828,0 1.5229178,0.595924 -3.443118,2.25127 -5.1646767,5.495746 -0.5297104,1.059421 -0.5297104,3.045834 0,2.185056 1.3904898,5.032249 1.1256345,2.317483 1.7215587,3.575545 0.662138,1.258062 0.7283518,1.456704 l 0.1324276,0.198641 q 0.4634966,1.39049 0.4634966,1.986414 0,0.993207 -0.7945656,1.787773 -0.7945656,0.728352 -1.7215588,0.728352 -3.6417589,0 -4.9660348,-5.297104 -0.1324276,-1.920201 -0.2648552,-3.31069 -0.066214,-1.456704 0,-2.383697 -0.331069,-0.331069 -0.7283518,-0.331069 -0.9269932,0 -1.58913119,1.787773 -0.46349659,1.324276 -0.46349659,2.582338 0,2.251269 1.45670357,4.701179 2.97962091,5.032249 8.01186961,5.032249 3.3769034,0 6.0916694,-3.575545 l 0.198641,-0.595924 q 0.794566,-1.9202 0.728352,-2.449911 0.06621,-1.258062 0,-2.185055 0,-0.926993 -0.06621,-1.589131 0.86078,-0.463497 1.39049,-0.463497 3.31069,0 5.363318,3.244476 1.721559,2.714766 1.721559,5.760601 z m 25.227498,8.409152 q 0,-0.72835 -0.52971,-0.72835 l -1.522917,0.79456 q -1.589131,0.72836 -2.383697,0.72836 -1.655345,0 -3.31069,-3.24448 -0.463497,-0.92699 -1.787773,-4.436325 l 9.269932,-6.687594 q -0.926993,-2.251269 -1.721558,-3.906614 -0.728352,-1.655345 -1.258063,-2.780979 0,-0.06621 0,-0.331069 0,-0.331069 -0.06621,-0.86078 0,-0.794565 -0.397283,-0.926993 -1.9202,0.926993 -3.045835,1.522918 -1.125635,0.52971 -1.456704,0.662138 -2.251269,1.258062 -4.237683,3.575545 -2.383696,2.780979 -2.44991,4.833607 -0.132428,0.728352 -0.264855,1.39049 -0.06621,0.595924 -0.198642,1.125634 0.06621,3.707973 0,3.774187 0.397283,2.847195 1.258062,4.833605 0.926994,1.72156 1.721559,3.11205 0.86078,1.39049 1.589131,2.51613 0,0.19864 -0.264855,0.66213 -0.264855,0.39729 -0.264855,0.52971 0,0.52971 0.595924,0.52971 0.331069,0 10.196925,-5.95924 0.52971,-0.33107 0.52971,-0.72835 z M 44.116037,91.521356 q 0,0.264856 -1.986414,1.522918 -2.383697,1.655345 -2.516125,1.787772 -0.397282,0 -0.595924,-0.331069 -1.05942,-3.774186 -1.05942,-5.628173 0,-1.456703 0.662138,-2.118841 0.264855,-0.397283 2.052627,-1.853986 0.595924,0.397282 0.993207,1.125634 0.926993,2.118842 1.522918,3.509331 0.662138,1.324276 0.926993,1.986414 z m 27.743591,6.025456 q 0,-0.06621 -0.397283,-0.993207 -0.06621,-0.52971 0.06621,-0.993207 -0.463497,-2.118841 -4.17147,-6.025456 0.06621,-0.728351 -0.264855,-1.05942 h -0.397283 l -6.025455,5.959242 h -0.331069 q -0.264855,-0.595925 -0.662138,-1.655345 -0.397283,-1.125635 -0.926993,-2.648552 -1.258063,-3.575545 -1.258063,-4.502539 0,-0.264855 0.132428,-0.662138 0.794566,0.132428 1.853986,0.463497 1.125635,0.331069 2.449911,0.860779 1.456704,0.662138 2.516124,1.059421 1.059421,0.331069 1.721559,0.463497 0.264855,-0.463497 2.449911,-2.78098 2.052627,-2.052628 2.052627,-3.443117 0,-0.86078 -0.52971,-2.052628 -2.118842,-2.185055 -2.847193,-2.185055 -0.264856,0 -0.662138,0.397282 0,0.198642 1.456703,1.456704 1.456704,1.258062 1.456704,2.185055 0,1.324276 -1.655345,1.324276 -1.191849,0 -3.376904,-1.059421 l -3.376904,-1.589131 -8.938862,8.938863 q 0.662138,1.721559 1.125634,2.979621 0.463497,1.191848 0.794566,2.052628 1.258062,3.376903 1.258062,5.297104 0,0.595924 -0.132428,0.860775 -3.178262,2.97962 -3.178262,3.70798 0,0.39728 0.132428,0.52971 2.052627,0.92699 5.164676,2.78098 0.331069,0.19864 1.655345,1.78777 1.125634,1.12563 1.9202,1.12563 2.317483,-1.72155 3.972828,-2.97962 1.721559,-1.32427 2.847193,-2.25127 3.906614,-3.17826 3.906614,-6.356521 0,-0.132428 0.06621,-0.463497 0.132428,-0.331069 0.132428,-0.52971 z m -3.575545,3.641758 q 0,0.26486 -0.198642,0.92699 -0.132427,0.79457 -0.993207,1.85399 -0.860779,1.05942 -1.456703,1.05942 -0.397283,0 -4.237683,-2.11884 -3.707973,-2.05263 -4.568753,-2.78098 0.86078,-1.39049 2.648552,-3.178262 0.132428,-0.132428 0.926994,-0.794566 0.794565,-0.728351 2.185055,-2.052627 0.728352,0.463496 1.324276,1.05942 0.926993,0.926993 1.589131,1.721559 0.662138,0.728352 1.125635,1.258062 1.655345,1.721559 1.655345,3.045834 z M 89.671204,86.489108 v -2.847194 q -0.331069,-0.331069 -0.52971,-0.331069 -0.993207,0 -2.25127,0.06621 -1.191848,0.06621 -2.714765,0.198642 -0.463497,-0.728352 -0.331069,-3.31069 0.06621,-1.522918 0.06621,-2.449911 0.06621,-0.926993 0,-1.258062 -0.926994,1.125635 -1.589132,2.118841 -0.595924,0.926994 -0.926993,1.655345 -3.31069,3.707973 -6.091669,4.966035 v 0.993207 q 1.456703,0.198642 1.787772,0.397283 1.059421,0.662138 1.059421,2.449911 0,0.264855 0,0.662138 0,0.331069 -0.06621,0.794565 v 1.522918 q 0.06621,0.463496 0.06621,0.993207 0.06621,0.463496 0.06621,1.125634 l -0.132428,7.945662 q -0.331069,1.52292 -0.728352,1.78777 -0.132427,0 -0.794565,0.33107 -0.662138,0.26485 -0.728352,0.72835 2.582338,1.19185 5.561959,3.97283 0.132428,0.26485 0.132428,0.39728 0.06621,0.13243 0.132427,0.26486 0.264856,0.46349 0.529711,0.46349 1.456703,-1.12563 2.847193,-2.31748 1.456704,-1.19185 2.913407,-2.31748 1.059421,-0.86078 1.324276,-1.45671 l -0.264855,-0.26485 h -0.52971 q -0.926994,1.12563 -1.324276,1.12563 -0.595925,0 -1.853987,-0.86078 -1.324276,-0.92699 -1.324276,-1.39049 -0.06621,-1.72155 -0.132427,-2.714765 0,-1.059421 0,-1.39049 0,0.198641 0,0.132428 0.06621,-0.06621 0.132427,-0.397283 0.06621,-0.198642 0.06621,-2.251269 0,0.06621 0,-0.463497 0,-0.52971 -0.06621,-1.589131 v -1.456704 -5.23089 l 0.198642,-0.198641 q 5.032248,-0.331069 5.495745,-0.595924 z m 24.101806,17.414232 q -0.13243,-0.19864 -0.4635,-0.52971 -1.58913,0.52971 -1.19185,0.52971 -1.25806,0 -1.72156,-3.44312 -0.26485,-1.522918 -0.26485,-3.774187 0,-1.655345 0.0662,-3.112049 0.13243,-1.522917 0.26486,-2.979621 0.39728,-2.648552 1.39049,-3.178262 v -0.397283 l -4.17147,-2.317483 q -0.99321,-0.52971 -1.9202,-1.125634 -0.927,-0.662138 -1.85399,-1.39049 v -0.794566 q 0,-0.595924 -0.4635,-0.662138 -2.9134,2.714766 -4.966031,4.899821 -1.986414,2.185056 -3.112049,3.906614 -2.847193,4.237684 -2.847193,8.872649 0,3.178259 0.926993,5.760599 0.926993,2.51613 1.986414,4.56875 0.06621,0.39729 0.06621,0.72836 0.06621,0.33106 0,0.59592 0.463496,0 0.595924,0.0662 l 8.078092,-7.01866 q 0.33106,0.72835 0.46349,1.32428 0.19864,0.52971 0.26486,0.9932 l 1.85398,3.31069 q 0,0.19865 -0.13242,0.52971 -0.13243,0.26486 -0.13243,0.33107 0.0662,0.13243 0.0662,0.4635 0.4635,0 0.52971,0.0662 z m -8.54158,-13.772473 q 0,-0.06621 -0.39729,1.589131 -0.33107,2.582338 -0.46349,4.303897 -0.13243,1.655345 -0.19864,2.383696 v 3.112049 q -0.13243,0.33107 -1.65535,1.58913 -1.4567,1.25806 -1.78777,1.25806 -0.66214,0 -1.589133,-2.9134 -0.331069,-0.99321 -0.529711,-1.85399 -0.198641,-0.926993 -0.331069,-1.787773 l -0.595924,-4.039041 v -1.853987 q 0,-0.993207 0.132428,-1.986414 0.198641,-0.993207 0.463496,-1.721559 0.264855,-0.794565 0.595924,-1.258062 0.331069,-0.52971 0.595925,-0.52971 0.529714,0 5.760604,3.244476 z m 24.43294,13.044113 q 0,-0.46349 -0.19864,-0.59592 h -0.4635 q -0.72835,0.92699 -1.12563,0.92699 -0.4635,0 -1.72156,-0.9932 -1.39049,-1.19185 -1.45671,-1.39049 V 80.662293 q 0,-7.084876 3.50934,-8.078083 0.26485,-0.132428 0.39728,-0.264855 0.19864,-0.132428 0.33107,-0.198642 v -0.794565 h -1.58913 q -1.19185,0 -3.17827,1.191848 -1.65534,1.059421 -2.51612,1.986414 -0.66214,0.86078 -1.19185,1.522918 -0.52971,0.662138 -0.86078,1.191848 -0.72835,-1.522917 -1.32427,-2.714766 -0.52972,-1.191848 -0.86078,-1.986414 -0.26486,-0.132427 -0.39729,-0.132427 -0.0662,-0.06621 -0.0662,-0.06621 -0.4635,0 -0.4635,0.595924 0,0.264855 0.66214,1.853986 0.33107,0.86078 0.4635,1.39049 0.19864,0.463497 0.26485,0.728352 0.26486,1.324276 0.39729,2.913407 0.19864,1.522917 0.33106,3.31069 0.0662,1.986414 0.19865,6.687594 l 0.13242,9.005076 q -0.33107,2.582332 -0.39728,3.178262 -1.19185,1.39049 -1.9202,1.85398 4.89982,3.50933 5.56196,4.3039 0.19864,0.19864 0.19864,0.66214 0,0.13243 -0.13243,0.79456 0,0.19864 0.26486,0.4635 h 0.46349 q 2.44992,-2.31748 4.03905,-3.90661 1.58913,-1.58914 2.44991,-2.31749 0.19864,-0.19864 0.19864,-0.66214 z m 17.67907,-16.685872 v -2.847194 q -0.33107,-0.331069 -0.52971,-0.331069 -0.99321,0 -2.25127,0.06621 -1.19185,0.06621 -2.71477,0.198642 -0.46349,-0.728352 -0.33107,-3.31069 0.0662,-1.522918 0.0662,-2.449911 0.0662,-0.926993 0,-1.258062 -0.927,1.125635 -1.58913,2.118841 -0.59593,0.926994 -0.927,1.655345 -3.31069,3.707973 -6.09167,4.966035 v 0.993207 q 1.45671,0.198642 1.78778,0.397283 1.05942,0.662138 1.05942,2.449911 0,0.264855 0,0.662138 0,0.331069 -0.0662,0.794565 v 1.522918 q 0.0662,0.463496 0.0662,0.993207 0.0662,0.463496 0.0662,1.125634 l -0.13243,7.945662 q -0.33107,1.52292 -0.72835,1.78777 -0.13243,0 -0.79456,0.33107 -0.66214,0.26485 -0.72836,0.72835 2.58234,1.19185 5.56196,3.97283 0.13243,0.26485 0.13243,0.39728 0.0662,0.13243 0.13243,0.26486 0.26485,0.46349 0.52971,0.46349 1.4567,-1.12563 2.84719,-2.31748 1.45671,-1.19185 2.91341,-2.31748 1.05942,-0.86078 1.32427,-1.45671 l -0.26485,-0.26485 h -0.52971 q -0.92699,1.12563 -1.32428,1.12563 -0.59592,0 -1.85398,-0.86078 -1.32428,-0.92699 -1.32428,-1.39049 -0.0662,-1.72155 -0.13243,-2.714765 0,-1.059421 0,-1.39049 0,0.198641 0,0.132428 0.0662,-0.06621 0.13243,-0.397283 0.0662,-0.198642 0.0662,-2.251269 0,0.06621 0,-0.463497 0,-0.52971 -0.0662,-1.589131 v -1.456704 -5.23089 l 0.19864,-0.198641 q 5.03225,-0.331069 5.49575,-0.595924 z"
           id="path1" />
        <path
           style="fill:#333333"
           d="m 202.76438,68.677596 q 0,-1.655345 -1.65535,-1.655345 -1.65534,0 -5.56196,3.244476 -1.85398,1.456704 -2.91341,2.516124 -1.05942,0.993207 -1.39049,1.522918 -0.46349,1.324276 -0.72835,2.317483 -0.26485,0.926993 -0.39728,1.589131 l -0.19864,12.713049 q -0.0662,2.847194 -0.13243,4.833607 -0.0662,1.920201 -0.13243,2.979621 -0.19864,0.86078 -1.98641,2.51612 -1.72156,1.72156 -2.44991,1.72156 -1.05942,0 -4.76739,-2.44991 -1.9202,-1.324273 -1.9202,-1.522914 0,-0.331069 2.71476,-2.516125 4.70118,-4.966035 6.2241,-9.601001 0.79456,-2.44991 0.79456,-5.628172 0,-3.774187 -1.19184,-6.952449 -1.78778,-4.568752 -6.29032,-5.495746 -1.32427,-0.264855 -1.98641,-0.397282 -0.66214,-0.132428 -0.66214,-0.132428 -1.12563,0.132428 -2.97962,0.595924 -1.72156,0.463497 -2.44991,0.993207 -1.98641,1.456704 -2.64855,2.516125 -2.3837,3.509331 -2.3837,5.495745 0,1.456703 1.52292,1.456703 3.57554,0 3.57554,-1.853986 0,-0.595924 -0.26485,-1.787772 -0.26486,-1.258063 -0.26486,-1.853987 0,-1.191848 0.99321,-2.118841 1.05942,-0.926994 2.25127,-0.926994 1.65535,0 3.3769,2.383697 1.32428,1.986414 1.9202,3.972828 0.13243,0.397283 0.26486,0.728352 0.13243,0.264855 0.19864,0.52971 0.99321,3.31069 0.99321,6.952449 0,3.443118 -1.78777,7.813228 -0.86078,2.317483 -3.24448,4.568752 -3.50933,3.509327 -6.88624,5.164677 -0.33106,0.33107 -0.33106,0.72835 0,0.99321 0.92699,0.99321 0.33107,0 1.19185,-0.33107 0.92699,-0.33107 1.25806,-0.33107 1.12563,0 3.97283,1.9202 2.71476,1.85399 3.04583,3.04584 0.39728,1.65534 1.05942,1.65534 0.33107,0 3.8404,-3.90661 1.52292,-1.72156 2.58234,-2.97962 1.05942,-1.32428 1.78777,-2.25127 0.13243,-0.13243 0.33107,-0.13243 0.13243,1.05942 0.26486,1.72156 0.13243,0.59592 0.26485,0.86078 0.99321,1.85398 1.85399,3.3769 0.92699,1.4567 1.65534,2.64855 0.26486,0.19864 0.72836,0.19864 0.26485,0 5.82681,-5.82681 1.19185,-1.19185 1.19185,-1.58913 0,-0.72835 -0.72835,-0.72835 -0.19864,0 -0.927,0.33107 -0.72835,0.26485 -0.92699,0.26485 -2.11884,0 -2.3837,-4.833607 0,-0.198641 -0.0662,-0.728351 -0.0662,-0.595925 -0.0662,-0.926994 l -0.0662,-19.069573 q 0,-2.847194 0.59593,-5.429532 0.19864,-0.860779 1.58913,-0.860779 0.13243,0 0.26485,0.06621 0.19864,0 0.33107,0 3.37691,0 3.37691,-2.118841 z"
           id="path2" />
        <path
           style="fill:#333333"
           d="m 222.49609,86.952604 q -0.0662,-0.132427 -0.33107,-0.52971 -0.26485,-0.397283 -0.79456,-1.125635 -0.66214,-0.926993 -1.12564,-1.522917 -0.39728,-0.595924 -0.59592,-0.926993 -0.0662,-0.06621 -0.26486,-0.794566 -0.13242,-0.794565 -0.46349,-0.860779 -3.90662,4.303897 -5.7606,6.555166 l -0.19865,0.06621 q -0.9932,-3.178263 -3.24447,-5.098463 -0.13243,-0.52971 -0.19864,-0.860779 0,-0.397283 -0.0662,-0.529711 h -0.52971 l -4.96603,5.826815 v 0.331069 q 0.26485,0.264855 0.52971,0.264855 0.13243,0 0.46349,-0.198642 0.33107,-0.198641 0.39729,-0.198641 0.59592,0 1.12563,1.324276 0.52971,1.191848 0.66214,3.707973 0.0662,2.317483 0.19864,3.707972 l 0.0662,1.125635 q 0,0.132428 -0.13243,0.397283 l -0.13243,0.264855 v 1.721559 q -0.0662,1.522924 -0.0662,2.648554 0,1.05942 -0.0662,1.72156 0,0.39728 -0.59592,0.92699 -0.52971,0.4635 -0.52971,0.66214 0,0.13243 0.13243,0.26486 0.86077,0.0662 2.64855,1.25806 0.86078,0.52971 1.4567,0.99321 0.59593,0.46349 0.92699,0.92699 0.13243,0.72835 0.0662,0.99321 0.26485,0.13242 0.26485,0.13242 0.72835,-0.26485 1.9202,-1.25806 1.72156,-1.52292 3.11205,-2.58234 1.39049,-1.12563 2.31748,-1.85398 v -0.72835 q -0.26485,-0.26486 -0.59592,-0.26486 -1.52292,1.12563 -1.65534,1.12563 -0.19865,0 -0.66214,-0.19864 -0.39729,-0.19864 -0.86078,-0.46349 -0.4635,-0.33107 -0.92699,-0.66214 -0.39729,-0.33107 -0.59593,-0.59593 -0.4635,-0.9932 -0.59592,-1.52291 v -2.913414 q 0.13242,-1.258062 0.19864,-2.317483 0.0662,-1.059421 0.0662,-1.9202 0.0662,-1.721559 0.0662,-2.714766 0,-0.993207 0.0662,-1.125634 0.26485,-2.185056 2.3837,-3.376904 2.64855,3.774186 3.31069,4.502538 0.66213,-0.728352 1.12563,-1.258062 0.4635,-0.52971 0.79457,-0.860779 1.65534,-1.721559 1.65534,-2.185056 z m 17.41429,-0.463496 v -2.847194 q -0.33107,-0.331069 -0.52971,-0.331069 -0.99321,0 -2.25127,0.06621 -1.19185,0.06621 -2.71477,0.198642 -0.46349,-0.728352 -0.33107,-3.31069 0.0662,-1.522918 0.0662,-2.449911 0.0662,-0.926993 0,-1.258062 -0.927,1.125635 -1.58913,2.118841 -0.59593,0.926994 -0.927,1.655345 -3.31069,3.707973 -6.09167,4.966035 v 0.993207 q 1.45671,0.198642 1.78778,0.397283 1.05942,0.662138 1.05942,2.449911 0,0.264855 0,0.662138 0,0.331069 -0.0662,0.794565 v 1.522918 q 0.0662,0.463496 0.0662,0.993207 0.0662,0.463496 0.0662,1.125634 l -0.13243,7.945662 q -0.33107,1.52292 -0.72835,1.78777 -0.13243,0 -0.79456,0.33107 -0.66214,0.26485 -0.72836,0.72835 2.58234,1.19185 5.56196,3.97283 0.13243,0.26485 0.13243,0.39728 0.0662,0.13243 0.13243,0.26486 0.26485,0.46349 0.52971,0.46349 1.4567,-1.12563 2.84719,-2.31748 1.45671,-1.19185 2.91341,-2.31748 1.05942,-0.86078 1.32428,-1.45671 l -0.26486,-0.26485 h -0.52971 q -0.92699,1.12563 -1.32428,1.12563 -0.59592,0 -1.85398,-0.86078 -1.32428,-0.92699 -1.32428,-1.39049 -0.0662,-1.72155 -0.13243,-2.714765 0,-1.059421 0,-1.39049 0,0.198641 0,0.132428 0.0662,-0.06621 0.13243,-0.397283 0.0662,-0.198642 0.0662,-2.251269 0,0.06621 0,-0.463497 0,-0.52971 -0.0662,-1.589131 v -1.456704 -5.23089 l 0.19864,-0.198641 q 5.03225,-0.331069 5.49575,-0.595924 z m 22.57887,11.057704 q 0,-0.06621 -0.39728,-0.993207 -0.0662,-0.52971 0.0662,-0.993207 -0.4635,-2.118841 -4.17147,-6.025456 0.0662,-0.728351 -0.26486,-1.05942 h -0.39728 l -6.02546,5.959242 h -0.33107 q -0.26485,-0.595925 -0.66213,-1.655345 -0.39729,-1.125635 -0.927,-2.648552 -1.25806,-3.575545 -1.25806,-4.502539 0,-0.264855 0.13243,-0.662138 0.79456,0.132428 1.85398,0.463497 1.12564,0.331069 2.44992,0.860779 1.4567,0.662138 2.51612,1.059421 1.05942,0.331069 1.72156,0.463497 0.26485,-0.463497 2.44991,-2.78098 2.05263,-2.052628 2.05263,-3.443117 0,-0.86078 -0.52971,-2.052628 -2.11885,-2.185055 -2.8472,-2.185055 -0.26485,0 -0.66214,0.397282 0,0.198642 1.45671,1.456704 1.4567,1.258062 1.4567,2.185055 0,1.324276 -1.65534,1.324276 -1.19185,0 -3.37691,-1.059421 l -3.3769,-1.589131 -8.93886,8.938863 q 0.66213,1.721559 1.12563,2.979621 0.4635,1.191848 0.79457,2.052628 1.25806,3.376903 1.25806,5.297104 0,0.595924 -0.13243,0.860775 -3.17826,2.97962 -3.17826,3.70798 0,0.39728 0.13243,0.52971 2.05262,0.92699 5.16467,2.78098 0.33107,0.19864 1.65535,1.78777 1.12563,1.12563 1.9202,1.12563 2.31748,-1.72155 3.97283,-2.97962 1.72155,-1.32427 2.84719,-2.25127 3.90661,-3.17826 3.90661,-6.356521 0,-0.132428 0.0662,-0.463497 0.13242,-0.331069 0.13242,-0.52971 z m -3.57554,3.641758 q 0,0.26486 -0.19864,0.92699 -0.13243,0.79457 -0.99321,1.85399 -0.86078,1.05942 -1.4567,1.05942 -0.39728,0 -4.23769,-2.11884 -3.70797,-2.05263 -4.56875,-2.78098 0.86078,-1.39049 2.64855,-3.178262 0.13243,-0.132428 0.927,-0.794566 0.79456,-0.728351 2.18505,-2.052627 0.72835,0.463496 1.32428,1.05942 0.92699,0.926993 1.58913,1.721559 0.66214,0.728352 1.12563,1.258062 1.65535,1.721559 1.65535,3.045834 z"
           id="path3" />
      </g>
    </g>
  </g>
</svg>
