<?xml version="1.0" encoding="UTF-8" standalone="no"?>
<!-- Created with Inkscape (http://www.inkscape.org/) -->

<svg
   width="129.98003mm"
   height="86.076286mm"
   viewBox="0 0 129.98003 86.076286"
   version="1.1"
   id="svg1"
   inkscape:version="1.3 (0e150ed6c4, 2023-07-21)"
   sodipodi:docname="thegestaltarts.svg"
   xmlns:inkscape="http://www.inkscape.org/namespaces/inkscape"
   xmlns:sodipodi="http://sodipodi.sourceforge.net/DTD/sodipodi-0.dtd"
   xmlns="http://www.w3.org/2000/svg"
   xmlns:svg="http://www.w3.org/2000/svg">
  <sodipodi:namedview
     id="namedview1"
     pagecolor="#ffffff"
     bordercolor="#000000"
     borderopacity="0.25"
     inkscape:showpageshadow="2"
     inkscape:pageopacity="0.0"
     inkscape:pagecheckerboard="0"
     inkscape:deskcolor="#d1d1d1"
     inkscape:document-units="mm"
     inkscape:zoom="2.0535659"
     inkscape:cx="209.39187"
     inkscape:cy="183.82659"
     inkscape:window-width="1920"
     inkscape:window-height="1018"
     inkscape:window-x="0"
     inkscape:window-y="0"
     inkscape:window-maximized="1"
     inkscape:current-layer="layer1" />
  <defs
     id="defs1" />
  <g
     inkscape:label="Layer 1"
     inkscape:groupmode="layer"
     id="layer1"
     transform="translate(-27.586188,-27.207539)">
    <g
       id="g3"
       inkscape:export-filename="thegestaltarts.png"
       inkscape:export-xdpi="96"
       inkscape:export-ydpi="96">
      <path
         id="rect1"
         style="opacity:0.518126;fill:#ffffff;stroke:#000000;stroke-width:0.264583"
         d="M 27.718479,27.33983 H 157.43392 v 85.8117 H 27.718479 Z"
         sodipodi:nodetypes="ccccc" />
      <g
         id="g1"
         transform="translate(2.29659,1.6956255)">
        <path
           style="font-size:21.071px;opacity:0.518126;fill:#803300;fill-opacity:1;stroke-width:3.61355"
           d="m 75.255966,38.101689 v 8.91303 q 0,3.68743 0.105355,4.57241 0.06321,0.52677 0.21071,0.82177 0.168568,0.27392 0.611059,0.33713 0.589988,0.0843 0.948195,0.0843 0.168568,0 0.168568,0.12642 0,0.16857 -0.337136,0.16857 -0.505704,0 -1.137834,-0.0211 -0.611059,0 -1.032479,-0.0211 -0.400349,-0.0211 -0.42142,-0.0211 -0.02107,0 -0.42142,0 -0.379278,0.0211 -0.884982,0.0421 -0.484633,0.0211 -0.758557,0.0211 -0.337136,0 -0.337136,-0.16857 0,-0.12642 0.168568,-0.12642 0.252852,0 0.632131,-0.0843 0.463562,-0.0843 0.611059,-1.1589 0.105355,-0.88498 0.105355,-4.57241 v -8.91303 q -0.505704,0 -1.559255,0.0211 -1.05355,0.0211 -1.559254,0.0211 -0.990337,0.0211 -1.453899,0.16857 -0.442491,0.12642 -0.695343,0.5057 -0.231781,0.35821 -0.358207,0.6532 -0.08428,0.21071 -0.21071,0.21071 -0.105355,0 -0.105355,-0.18964 0,-0.33713 0.463562,-2.19138 0.126426,-0.40035 0.21071,-0.40035 0.04214,0 0.316065,0.12643 0.273923,0.10535 0.611059,0.12642 1.011408,0.10536 1.664609,0.10536 h 7.901626 q 0.927124,0 1.496041,-0.10536 0.126426,-0.0211 0.252852,-0.0421 0.147497,-0.0211 0.21071,-0.0421 0.08428,-0.0211 0.126426,-0.0211 0.105355,0 0.105355,0.25285 0,0.35821 -0.04214,1.3064 -0.02107,0.9482 -0.02107,1.01141 0,0.27392 -0.147497,0.27392 -0.147497,0 -0.168568,-0.3582 0,-0.0421 -0.02107,-0.10536 0,-0.0843 0,-0.12643 -0.105355,-1.11676 -2.591733,-1.1589 -0.442491,0 -1.327473,-0.0211 -0.884982,-0.0211 -1.327473,-0.0211 z m 11.968327,5.77345 h 8.934105 q 0.12642,0 0.12642,-0.12642 v -0.4425 q 0,-3.87706 -0.0421,-4.55133 -0.0421,-0.56892 -0.23178,-0.82177 -0.16856,-0.27392 -0.67427,-0.37928 -0.25285,-0.0632 -0.71641,-0.0632 -0.16857,0 -0.16857,-0.12643 0,-0.16857 0.33714,-0.16857 0.42142,0 0.99033,0.0211 0.56892,0 0.96927,0.0211 0.40035,0.0211 0.42142,0.0211 0.0211,0 0.40035,-0.0211 0.40035,-0.0211 0.88498,-0.0211 0.5057,-0.0211 0.77963,-0.0211 0.33713,0 0.33713,0.16857 0,0.12643 -0.16857,0.12643 -0.14749,0 -0.52677,0.0632 -0.42142,0.0843 -0.58999,0.35821 -0.1475,0.27392 -0.18964,0.84284 -0.0421,0.67427 -0.0421,4.55133 v 3.7085 q 0,3.68743 0.10536,4.57241 0.0632,0.52677 0.21071,0.82177 0.16857,0.27392 0.61106,0.33713 0.58998,0.0843 0.94819,0.0843 0.168572,0 0.168572,0.12642 0,0.16857 -0.337142,0.16857 -0.5057,0 -1.13783,-0.0211 -0.61106,0 -1.03248,-0.0211 -0.40035,-0.0211 -0.42142,-0.0211 -0.0211,0 -0.42142,0 -0.37928,0.0211 -0.88498,0.0421 -0.48463,0.0211 -0.75856,0.0211 -0.33713,0 -0.33713,-0.16857 0,-0.12642 0.16856,-0.12642 0.25286,0 0.63213,-0.0843 0.46357,-0.0843 0.61106,-1.1589 0.10536,-0.88498 0.10536,-4.57241 v -2.21245 q 0,-0.12643 -0.12643,-0.12643 h -8.934101 q -0.126426,0 -0.126426,0.12643 v 2.21245 q 0,3.68743 0.105355,4.57241 0.06321,0.52677 0.21071,0.82177 0.168568,0.27392 0.611059,0.33713 0.589988,0.0843 0.948195,0.0843 0.168568,0 0.168568,0.12642 0,0.16857 -0.337136,0.16857 -0.505704,0 -1.137834,-0.0211 -0.611058,0 -1.032478,-0.0211 -0.400349,-0.0211 -0.42142,-0.0211 -0.02107,0 -0.42142,0 -0.379278,0.0211 -0.884982,0.0421 -0.484633,0.0211 -0.758556,0.0211 -0.337136,0 -0.337136,-0.16857 0,-0.12642 0.168568,-0.12642 0.252852,0 0.63213,-0.0843 0.463562,-0.0843 0.611059,-1.1589 0.105355,-0.88498 0.105355,-4.57241 v -3.7085 q 0,-3.87706 -0.04214,-4.55133 -0.04214,-0.56892 -0.231781,-0.82177 -0.168568,-0.27392 -0.674272,-0.37928 -0.252852,-0.0632 -0.716414,-0.0632 -0.168568,0 -0.168568,-0.12643 0,-0.16857 0.337136,-0.16857 0.42142,0 0.990337,0.0211 0.568917,0 0.969266,0.0211 0.400349,0.0211 0.42142,0.0211 0.02107,0 0.400349,-0.0211 0.400349,-0.0211 0.884981,-0.0211 0.505704,-0.0211 0.779627,-0.0211 0.337136,0 0.337136,0.16857 0,0.12643 -0.168568,0.12643 -0.147497,0 -0.526775,0.0632 -0.42142,0.0843 -0.589988,0.35821 -0.147497,0.27392 -0.189639,0.84284 -0.04214,0.67427 -0.04214,4.55133 v 0.4425 q 0,0.12642 0.126426,0.12642 z m 18.289627,3.13958 v -3.7085 q 0,-3.87706 -0.0421,-4.55133 -0.0421,-0.56892 -0.23178,-0.82177 -0.16857,-0.27392 -0.67428,-0.37928 -0.0632,-0.0211 -0.16856,-0.0211 -0.10536,-0.0211 -0.25286,-0.0211 -0.12642,-0.0211 -0.18964,-0.0211 -0.27392,-0.0421 -0.27392,-0.12643 0,-0.16857 0.33714,-0.16857 1.05355,0 2.38102,0.0632 4.34063,0 4.82526,-0.0211 0.77963,-0.0421 0.96927,-0.12643 0.16856,-0.0843 0.23178,-0.0843 0.0843,0 0.0843,0.18964 0,0.0421 -0.0843,0.3582 -0.0632,0.295 -0.0843,0.63213 l -0.0843,1.26426 q -0.0421,0.35821 -0.16857,0.35821 -0.16857,0 -0.16857,-0.27392 0,-0.42142 -0.10535,-0.69535 -0.21071,-0.6532 -1.51712,-0.77962 -0.54784,-0.0632 -2.88672,-0.0632 -0.12643,0 -0.12643,0.21071 v 5.8156 q 0,0.21071 0.12643,0.21071 2.86565,0 3.35029,-0.0421 0.80069,-0.0632 1.05355,-0.35821 0.16856,-0.21071 0.25285,-0.21071 0.10535,0 0.10535,0.16857 0,0.0421 -0.0421,0.18964 -0.0211,0.14749 -0.0632,0.42142 -0.0421,0.27392 -0.0632,0.56891 -0.0421,0.37928 -0.0632,0.90606 -0.0211,0.5057 -0.0211,0.52677 -0.0421,0.31607 -0.14749,0.31607 -0.1475,0 -0.1475,-0.33714 0,-0.33713 -0.0843,-0.58999 -0.1475,-0.58998 -1.09569,-0.69534 -0.9482,-0.10535 -3.01316,-0.10535 -0.14749,0 -0.14749,0.14749 v 1.85425 q 0,0.18964 0,1.09569 0,0.88498 0,1.6014 0,0.71641 0,0.90605 0.0421,0.69534 0.16856,1.05355 0.1475,0.33714 0.52678,0.48463 0.46356,0.18964 1.74889,0.18964 1.26426,0 1.89639,-0.18964 0.48464,-0.14749 0.71642,-0.48463 0.23178,-0.35821 0.3582,-1.07462 0.0632,-0.31606 0.18964,-0.31606 0.12643,0 0.12643,0.31606 0,0.1475 -0.10536,0.9482 -0.10535,0.80069 -0.16856,1.09569 -0.10536,0.40035 -0.295,0.46356 -0.18964,0.0843 -0.84284,0.0843 -0.61106,0 -3.07636,-0.0632 -2.52852,-0.0632 -2.63388,-0.0632 -0.21071,0 -0.73748,0.0421 -0.52678,0.0421 -0.82177,0.0211 -0.33714,0 -0.33714,-0.16857 0,-0.0843 0.23178,-0.12642 0.40035,-0.0421 0.48463,-0.0632 0.37928,-0.0843 0.54785,-0.48463 0.18964,-0.40035 0.21071,-1.49604 0.0421,-1.64354 0.0421,-3.77171 z"
           id="path16" />
        <path
           style="font-size:21.071px;font-family:'Trajan Pro 3';-inkscape-font-specification:'Trajan Pro 3, ';fill:#803300;fill-opacity:1;stroke-width:3.61355"
           d="m 60.348279,72.368199 v 2.35996 q 0,0.69534 -0.04214,0.86391 -0.04214,0.16856 -0.231781,0.27392 -1.791035,0.94819 -4.467052,0.94819 -4.361697,0 -6.932358,-2.25459 -1.05355,-0.90606 -1.791035,-2.52852 -0.716414,-1.62247 -0.716414,-3.47672 0,-2.38102 0.990337,-4.17206 0.990337,-1.79103 2.52852,-2.7603 2.12817,-1.32747 5.604885,-1.32747 1.517112,0 3.223863,0.35821 0.716414,0.16857 1.706751,0.21071 0.252852,0.0211 0.252852,0.18964 0,0.0632 -0.04214,0.40035 -0.02107,0.31606 -0.06321,0.99033 -0.04214,0.67427 -0.04214,1.6014 0,0.44249 -0.189639,0.44249 -0.105355,0 -0.147497,-0.31607 -0.06321,-0.77962 -0.442491,-1.39068 -0.442491,-0.67427 -1.748893,-1.17998 -1.306402,-0.52677 -3.202792,-0.52677 -2.73923,0 -4.509193,1.39068 -0.948195,0.75856 -1.517112,2.17032 -0.568917,1.39068 -0.568917,3.18172 0,1.9596 0.716414,3.51885 0.737485,1.55926 1.517112,2.31781 2.317809,2.2546 5.520601,2.2546 1.643538,0 2.402094,-0.44249 0.42142,-0.23178 0.42142,-0.73748 v -3.58207 q 0,-1.28534 -0.168568,-1.64354 -0.147497,-0.35821 -0.779627,-0.52678 -0.252852,-0.0632 -0.716414,-0.0632 -0.168568,0 -0.168568,-0.12643 0,-0.16856 0.337136,-0.16856 0.42142,0 0.990337,0.0211 0.568917,0.0211 0.969266,0.0421 0.400349,0 0.42142,0 0.02107,0 0.400349,0 0.400349,-0.0211 0.884982,-0.0421 0.505704,-0.0211 0.779627,-0.0211 0.337136,0 0.337136,0.16856 0,0.12643 -0.168568,0.12643 -0.147497,0 -0.526775,0.0632 -0.42142,0.0843 -0.589988,0.35821 -0.147497,0.27392 -0.189639,0.84284 -0.04214,0.67427 -0.04214,2.19138 z m 5.899871,-1.05355 v -3.16065 q 0,-3.266 -0.04214,-3.83492 -0.04214,-0.46356 -0.21071,-0.69534 -0.147497,-0.23178 -0.589988,-0.31607 -0.252852,-0.0421 -0.505704,-0.0421 -0.273923,0 -0.273923,-0.12642 0,-0.16857 0.316065,-0.16857 0.189639,0 0.863911,0.0211 0.674272,0.0211 1.306402,0.0421 3.855993,0 4.277413,-0.0211 0.63213,-0.0211 0.821769,-0.10536 0.189639,-0.0632 0.231781,-0.0632 0.08428,0 0.08428,0.1475 0,0.0421 -0.08428,0.35821 -0.06321,0.29499 -0.08428,0.58998 -0.06321,0.90606 -0.06321,1.0957 0,0.31606 -0.147497,0.31606 -0.147497,0 -0.147497,-0.23178 -0.02107,-0.40035 -0.147497,-0.67427 -0.105355,-0.33714 -0.358207,-0.46356 -0.252852,-0.12643 -1.011408,-0.16857 -0.547846,-0.0421 -2.402094,-0.0421 -0.105355,0 -0.105355,0.16856 v 4.78312 q 0,0.21071 0.126426,0.21071 2.170313,0 2.844585,-0.0632 0.758556,-0.0421 0.969266,-0.31607 0.105355,-0.16857 0.231781,-0.16857 0.08428,0 0.08428,0.12643 0,0.0421 -0.02107,0.18964 -0.02107,0.1475 -0.06321,0.42142 -0.04214,0.25285 -0.06321,0.5057 -0.04214,0.35821 -0.06321,0.82177 -0.02107,0.44249 -0.02107,0.46356 -0.02107,0.23179 -0.147497,0.23179 -0.126426,0 -0.126426,-0.27393 0,-0.25285 -0.06321,-0.5057 -0.168568,-0.56892 -1.011408,-0.63213 -0.969266,-0.0843 -2.52852,-0.0843 -0.147497,0 -0.147497,0.1475 v 1.53818 q 0,0.18964 0,0.90606 0,0.71641 0,1.26426 0,0.52677 0,0.69534 0.04214,0.63213 0.147497,0.9482 0.126426,0.29499 0.442491,0.42142 0.400349,0.18963 1.538183,0.18963 1.158905,0 1.601396,-0.12642 0.442491,-0.12643 0.611059,-0.42142 0.189639,-0.31607 0.337136,-0.96927 0.06321,-0.29499 0.189639,-0.29499 0.126426,0 0.126426,0.31606 0,0.52678 -0.231781,1.83318 -0.06321,0.31607 -0.231781,0.37928 -0.168568,0.0843 -0.695343,0.0843 -0.779627,0 -1.601396,-0.0211 -0.821769,-0.0211 -1.116763,-0.0211 -2.212455,-0.0632 -2.486378,-0.0632 -0.231781,0 -0.695343,0.0211 -0.442491,0.0421 -0.695343,0.0421 -0.294994,0 -0.294994,-0.1475 0,-0.14749 0.189639,-0.14749 0.189639,0 0.42142,-0.0632 0.316065,-0.0632 0.484633,-0.40035 0.168568,-0.3582 0.189639,-1.26426 0.04214,-1.43282 0.04214,-3.18172 z m 12.874378,5.43632 q -1.47497,0 -2.507449,-0.46356 -0.189639,-0.0843 -0.231781,-0.18964 -0.04214,-0.12643 -0.04214,-0.52677 0,-0.8007 0.08428,-1.98068 0.04214,-0.29499 0.168568,-0.29499 0.147497,0 0.147497,0.21071 0,0.37928 0.06321,0.63213 0.189639,0.96926 0.948195,1.43283 0.779627,0.46356 1.791035,0.46356 1.222118,0 1.89639,-0.67427 0.695343,-0.69535 0.695343,-1.58033 0,-0.88498 -0.463562,-1.55925 -0.442491,-0.67428 -1.622467,-1.62247 l -0.84284,-0.6532 q -1.432828,-1.13784 -1.938532,-2.04389 -0.505704,-0.90605 -0.505704,-1.93853 0,-1.4539 1.05355,-2.33888 1.074621,-0.90605 2.844585,-0.90605 0.969266,0 1.706751,0.16856 0.505704,0.10536 0.716414,0.10536 0.189641,0 0.189641,0.12642 l -0.0211,0.27393 q -0.0211,0.25285 -0.0422,0.73748 -0.0211,0.48464 -0.0211,1.03248 0,0.44249 -0.147493,0.44249 -0.105355,0 -0.147497,-0.23178 -0.06321,-0.6532 -0.252852,-0.99034 -0.547846,-0.99033 -2.359952,-0.99033 -0.969266,0 -1.601396,0.54784 -0.611059,0.54785 -0.611059,1.47497 0,0.73749 0.463562,1.32748 0.463562,0.58998 1.791035,1.60139 l 0.484633,0.37928 q 1.580325,1.22212 2.170313,2.17031 0.589986,0.9482 0.589986,2.12817 0,0.73749 -0.37928,1.58033 -0.358203,0.82177 -1.222114,1.41176 -1.158905,0.73748 -2.844585,0.73748 z m 13.44328,-12.95866 v 7.52234 q 0,2.92887 0.10535,3.89814 0.0421,0.31606 0.0632,0.46356 0.0421,0.12643 0.16856,0.27392 0.1475,0.12643 0.40035,0.18964 0.33714,0.0843 0.82177,0.0843 0.25285,0 0.25285,0.12642 0,0.16857 -0.27392,0.16857 -0.48463,0 -1.05355,-0.0211 -0.56892,0 -0.94819,-0.0211 l -0.40035,-0.0211 q -0.0211,0 -0.37928,0 -0.358211,0.0211 -0.821771,0.0421 -0.44249,0.0211 -0.674274,0.0211 -0.31607,0 -0.31607,-0.1475 0,-0.14749 0.23178,-0.14749 0.295004,0 0.463574,-0.0211 0.29499,-0.0421 0.37927,-0.25286 0.10536,-0.21071 0.16857,-0.77962 0.0843,-0.75856 0.0843,-3.856 v -7.52234 q -1.812114,0 -2.654954,0.0211 -0.9482,0.0211 -1.32747,0.16857 -0.35821,0.14749 -0.61106,0.5057 -0.1475,0.23178 -0.31607,0.6532 -0.0632,0.16857 -0.189636,0.16857 -0.10535,0 -0.10535,-0.18964 -0.0211,-0.10536 0.421416,-2.08603 0.0843,-0.33714 0.18964,-0.33714 0.0632,0 0.37928,0.10536 0.33713,0.10535 0.54784,0.12643 0.92713,0.10535 1.34855,0.10535 h 6.911285 q 1.03248,0 1.51711,-0.10535 0.35821,-0.0843 0.40035,-0.0843 0.12643,0 0.12643,0.18964 0,0.35821 -0.0211,1.24319 -0.0211,0.88498 -0.0211,0.90605 0,0.25285 -0.1475,0.25285 -0.1475,0 -0.1475,-0.25285 0,-0.0843 -0.0211,-0.29499 -0.0632,-0.6532 -0.5057,-0.84284 -0.42142,-0.21071 -1.98068,-0.23178 -0.42141,0 -1.11676,0 -0.67427,-0.0211 -0.94819,-0.0211 z m 13.548632,7.58556 h -3.83491 q -0.1475,0 -0.21071,0.16856 l -0.92713,2.63388 q -0.35821,1.01141 -0.35821,1.49604 0,0.54785 0.69535,0.54785 h 0.14749 q 0.25286,0 0.25286,0.14749 0,0.1475 -0.31607,0.1475 -0.25285,0 -0.92712,-0.0421 -0.653202,-0.0211 -0.737492,-0.0211 -0.0211,0 -0.75855,0.0211 -0.73749,0.0421 -1.26426,0.0421 -0.33714,0 -0.33714,-0.1475 0,-0.14749 0.25285,-0.14749 0.295,0 0.42142,-0.0211 0.61106,-0.0632 0.9482,-0.46357 0.3582,-0.40035 0.67427,-1.20104 l 4.214192,-11.10442 q 0.16857,-0.46356 0.25285,-0.58999 0.0843,-0.12642 0.18964,-0.12642 0.1475,0 0.42142,0.67427 0.0421,0.10535 1.83318,4.61455 1.79103,4.50919 2.44423,6.06844 0.71642,1.72783 1.6014,2.04389 0.27392,0.10536 0.71641,0.10536 0.25285,0 0.25285,0.14749 0,0.1475 -0.31606,0.1475 -1.79103,0 -3.20279,-0.0421 -0.52678,-0.0211 -0.52678,-0.1475 0,-0.10535 0.1475,-0.1475 0.23178,-0.10535 0.0843,-0.46356 l -1.6646,-4.23527 q -0.0632,-0.10535 -0.16857,-0.10535 z m -3.6242,-0.73749 h 3.37135 q 0.10535,0 0.0632,-0.12642 l -1.66461,-4.6567 q -0.10536,-0.31606 -0.23178,0 l -1.58032,4.6567 q -0.0632,0.12642 0.0421,0.12642 z m 13.56969,-2.48638 v 3.2028 q 0,3.56099 0.4425,3.98241 0.48463,0.42142 2.21245,0.42142 0.61106,0 0.90605,-0.0211 0.31607,-0.0211 0.71642,-0.14749 0.40035,-0.1475 0.61106,-0.42142 0.31606,-0.48464 0.40035,-1.05355 0.0421,-0.25286 0.16856,-0.25286 0.12643,0 0.12643,0.27393 0,0.92712 -0.25285,1.89639 -0.0632,0.21071 -0.0843,0.27392 -0.0211,0.0421 -0.14749,0.1475 -0.10536,0.0843 -0.31607,0.0843 -0.18964,0.0211 -0.56892,0.0211 -0.63213,0 -2.31781,-0.0632 -1.6646,-0.0421 -2.80244,-0.0421 -0.33713,0 -0.90605,0.0211 -0.56892,0.0421 -0.9482,0.0421 -0.33713,0 -0.33713,-0.16857 0,-0.12642 0.23178,-0.12642 0.33713,0 0.5057,-0.0421 0.44249,-0.0843 0.54785,-0.99033 0.0843,-0.52678 0.0843,-3.87707 v -3.16065 q 0,-3.24493 -0.0421,-3.81385 -0.0211,-0.33713 -0.0843,-0.52677 -0.0421,-0.18964 -0.23178,-0.33714 -0.18964,-0.1475 -0.52678,-0.18964 -0.12643,-0.0211 -0.52677,-0.0211 -0.23179,0 -0.23179,-0.1475 0,-0.14749 0.31607,-0.14749 0.25285,0 0.54785,0.0211 0.31606,0 0.58998,0.0211 0.27393,0 0.50571,0 0.25285,0 0.40035,0 l 0.14749,0.0211 q 0.10536,0 0.96927,-0.0211 0.86391,-0.0421 1.20105,-0.0421 0.27392,0 0.27392,0.14749 0,0.1475 -0.23178,0.1475 -0.1475,0 -0.56892,0.0421 -0.42142,0.0632 -0.56892,0.295 -0.14749,0.23178 -0.18963,0.73748 -0.0211,0.295 -0.0211,3.81385 z m 13.42224,-4.36169 v 7.52234 q 0,2.92887 0.10536,3.89814 0.0421,0.31606 0.0632,0.46356 0.0421,0.12643 0.16857,0.27392 0.14749,0.12643 0.40035,0.18964 0.33713,0.0843 0.82177,0.0843 0.25285,0 0.25285,0.12642 0,0.16857 -0.27393,0.16857 -0.48463,0 -1.05355,-0.0211 -0.56891,0 -0.94819,-0.0211 l -0.40035,-0.0211 q -0.0211,0 -0.37928,0 -0.3582,0.0211 -0.82177,0.0421 -0.44249,0.0211 -0.67427,0.0211 -0.31606,0 -0.31606,-0.1475 0,-0.14749 0.23178,-0.14749 0.29499,0 0.46356,-0.0211 0.29499,-0.0421 0.37928,-0.25286 0.10535,-0.21071 0.16857,-0.77962 0.0843,-0.75856 0.0843,-3.856 v -7.52234 q -1.81211,0 -2.65495,0.0211 -0.94819,0.0211 -1.32747,0.16857 -0.35821,0.14749 -0.61106,0.5057 -0.1475,0.23178 -0.31606,0.6532 -0.0632,0.16857 -0.18964,0.16857 -0.10536,0 -0.10536,-0.18964 -0.0211,-0.10536 0.42142,-2.08603 0.0843,-0.33714 0.18964,-0.33714 0.0632,0 0.37928,0.10536 0.33714,0.10535 0.54785,0.12643 0.92712,0.10535 1.34854,0.10535 h 6.91129 q 1.03248,0 1.51711,-0.10535 0.35821,-0.0843 0.40035,-0.0843 0.12642,0 0.12642,0.18964 0,0.35821 -0.0211,1.24319 -0.0211,0.88498 -0.0211,0.90605 0,0.25285 -0.14749,0.25285 -0.1475,0 -0.1475,-0.25285 0,-0.0843 -0.0211,-0.29499 -0.0632,-0.6532 -0.50571,-0.84284 -0.42142,-0.21071 -1.98067,-0.23178 -0.42142,0 -1.11676,0 -0.67428,-0.0211 -0.9482,-0.0211 z"
           id="path17" />
        <path
           style="font-size:21.071px;font-family:'Trajan Pro 3';-inkscape-font-specification:'Trajan Pro 3, ';fill:#333333;stroke-width:3.61355"
           d="m 73.865296,93.688579 h -4.53026 q -0.1475,0 -0.21071,0.16856 l -1.26426,3.72957 q -0.295,0.82177 -0.295,1.41176 0,0.29499 0.23178,0.46356 0.23178,0.1475 0.52678,0.1475 h 0.18964 q 0.27392,0 0.27392,0.12642 0,0.16857 -0.37928,0.16857 -0.294989,0 -0.906049,-0.0421 -0.58999,-0.0211 -0.674271,-0.0211 -0.0211,0 -0.906059,0.0211 -0.88498,0.0421 -1.47497,0.0421 -0.40035,0 -0.40035,-0.16857 0,-0.12642 0.295,-0.12642 0.16857,0 0.5057,-0.0421 0.67427,-0.0843 1.05355,-0.56891 0.37928,-0.50571 0.71642,-1.41176 l 4.78311,-13.08509 q 0.295,-0.82177 0.46357,-0.82177 0.16856,0 0.46356,0.75856 0.0843,0.21071 1.05355,2.78137 0.99033,2.57066 2.12817,5.54167 1.1589,2.97101 1.727819,4.38277 0.84284,2.06496 1.812111,2.33888 0.37927,0.12643 0.82177,0.12643 0.23178,0 0.23178,0.12642 0,0.16857 -0.42142,0.16857 -1.85425,0 -3.30815,-0.0421 -0.63213,-0.0421 -0.63213,-0.1475 0,-0.10535 0.147499,-0.1475 0.29499,-0.10535 0.12642,-0.56891 l -1.9596,-5.18347 q -0.0632,-0.12642 -0.189639,-0.12642 z m -4.29848,-0.75856 h 4.02456 q 0.12642,0 0.0843,-0.1475 l -2.00174,-5.68917 q -0.1475,-0.48463 -0.31607,0 l -1.85425,5.68917 q -0.0632,0.1475 0.0632,0.1475 z m 13.0851,1.76996 v -3.16065 q 0,-3.28707 -0.0421,-3.85599 -0.0421,-0.46356 -0.21071,-0.69534 -0.16857,-0.23178 -0.63213,-0.31607 -0.25286,-0.0421 -0.50571,-0.0421 -0.23178,0 -0.23178,-0.12643 0,-0.14749 0.25285,-0.14749 0.25285,0 0.56892,0.0211 0.31606,0 0.58999,0.0211 0.29499,0 0.52677,0 0.23178,0 0.40035,0 l 0.1475,0.0211 q 0.0421,0 0.94819,-0.0211 0.92713,-0.0421 1.26426,-0.0421 2.31781,0 3.45565,0.8007 1.26426,0.92712 1.26426,2.57066 0,2.17031 -2.23353,3.98242 2.80244,3.45564 3.877072,4.5724 1.09569,1.11677 2.23352,1.28533 0.295,0.0421 0.6532,0.0421 0.23178,0 0.23178,0.14749 0,0.1475 -0.37927,0.1475 h -1.47497 q -1.30641,0 -1.91747,-0.25285 -0.18963,-0.0843 -0.358202,-0.18964 -0.16857,-0.10536 -0.35821,-0.27392 -0.18964,-0.18964 -0.33714,-0.31607 -0.12642,-0.1475 -0.3582,-0.42142 -0.23178,-0.27392 -0.35821,-0.42142 -0.12643,-0.16857 -0.42142,-0.54784 -0.27392,-0.37928 -0.42142,-0.56892 -0.46356,-0.58999 -1.20105,-1.51711 -0.71641,-0.92713 -0.82177,-1.07462 -0.12642,-0.12643 -0.25285,-0.12643 l -2.17031,-0.0211 q -0.10536,0 -0.10536,0.10535 v 0.295 q 0,3.22386 0.10536,3.98242 0.0421,0.31606 0.0843,0.48463 0.0422,0.16857 0.21071,0.33714 0.18964,0.14749 0.52678,0.18963 0.42142,0.0421 0.61106,0.0421 0.27392,0 0.27392,0.12642 0,0.16857 -0.29499,0.16857 -0.48464,0 -1.05355,-0.0211 -0.56892,0 -0.9482,-0.0211 l -0.35821,-0.0211 q -0.14749,0 -0.84284,0.0211 -0.67427,0.0421 -0.99033,0.0421 -0.295,0 -0.295,-0.16857 0,-0.12642 0.25286,-0.12642 0.29499,0 0.46356,-0.0421 0.46356,-0.0843 0.54784,-0.80069 0.0843,-0.61106 0.0843,-4.06671 z m 1.62246,-7.39592 v 5.73131 q 0,0.18964 0.10536,0.25286 0.505701,0.27392 1.87532,0.27392 0.927121,0 1.41176,-0.31607 1.053551,-0.67427 1.053551,-2.67601 0,-1.70675 -0.84284,-2.63388 -0.82177,-0.92712 -2.2546,-0.92712 -0.8007,0 -1.22212,0.10535 -0.12643,0.0422 -0.126431,0.18964 z m 16.519664,-0.12642 v 7.52234 q 0,2.92887 0.10536,3.89814 0.0421,0.31606 0.0632,0.46356 0.0421,0.12643 0.16857,0.27392 0.1475,0.12643 0.40035,0.18964 0.33713,0.0843 0.82177,0.0843 0.25285,0 0.25285,0.12642 0,0.16857 -0.27392,0.16857 -0.48464,0 -1.05355,-0.0211 -0.56892,0 -0.9482,-0.0211 l -0.400352,-0.0211 q -0.0211,0 -0.37928,0 -0.3582,0.0211 -0.82176,0.0421 -0.4425,0.0211 -0.67428,0.0211 -0.31606,0 -0.31606,-0.1475 0,-0.14749 0.23178,-0.14749 0.29499,0 0.46356,-0.0211 0.295,-0.0421 0.37928,-0.25286 0.10535,-0.21071 0.16857,-0.77962 0.0843,-0.75856 0.0843,-3.856 v -7.52234 q -1.8121,0 -2.65494,0.0211 -0.9482,0.0211 -1.32748,0.16857 -0.3582,0.14749 -0.61106,0.5057 -0.14749,0.23178 -0.31606,0.6532 -0.0632,0.16857 -0.18964,0.16857 -0.10536,0 -0.10536,-0.18964 -0.0211,-0.10536 0.42142,-2.08603 0.0843,-0.33714 0.18964,-0.33714 0.0632,0 0.37928,0.10536 0.33714,0.10535 0.54785,0.12643 0.92712,0.10535 1.34854,0.10535 h 6.911282 q 1.03248,0 1.51711,-0.10535 0.35821,-0.0843 0.40035,-0.0843 0.12643,0 0.12643,0.18964 0,0.35821 -0.0211,1.24319 -0.0211,0.88498 -0.0211,0.90605 0,0.25285 -0.14749,0.25285 -0.1475,0 -0.1475,-0.25285 0,-0.0843 -0.0211,-0.29499 -0.0632,-0.6532 -0.5057,-0.84284 -0.42142,-0.21071 -1.98068,-0.23178 -0.42141,0 -1.11675,0 -0.67427,-0.0211 -0.9482,-0.0211 z m 10.7462,13.021871 q -1.66461,0 -2.82352,-0.568911 -0.21071,-0.10536 -0.27392,-0.23178 -0.0421,-0.12643 -0.0421,-0.56892 0,-0.54785 0.10535,-2.23353 0.0211,-0.33713 0.16857,-0.33713 0.1475,0 0.1475,0.23178 0,0.48463 0.0632,0.77963 0.23178,1.09569 1.09569,1.62246 0.86392,0.52678 2.02282,0.52678 1.43283,0 2.21246,-0.84284 0.80069,-0.84284 0.80069,-1.95961 0,-1.07462 -0.52677,-1.85424 -0.50571,-0.77963 -1.89639,-1.93854 l -0.9482,-0.77962 q -1.58032,-1.28533 -2.17031,-2.33888 -0.56892,-1.05355 -0.56892,-2.23353 0,-1.70675 1.17998,-2.73923 1.17998,-1.05355 3.18172,-1.05355 1.07462,0 1.9596,0.21071 0.50571,0.10536 0.73749,0.10536 0.21071,0 0.21071,0.14749 l -0.0211,0.27393 q -0.0211,0.27392 -0.0421,0.80069 -0.0211,0.52678 -0.0211,1.15891 0,0.48463 -0.14749,0.48463 -0.12643,0 -0.16857,-0.27392 -0.0632,-0.6532 -0.27392,-1.05355 -0.61106,-1.11676 -2.63388,-1.11676 -1.11676,0 -1.85425,0.67427 -0.73748,0.6532 -0.73748,1.76996 0,0.90605 0.52677,1.64354 0.52678,0.71641 2.04389,1.89639 l 0.58999,0.46356 q 1.79103,1.41176 2.42316,2.50745 0.6532,1.09569 0.6532,2.44424 0,0.84284 -0.42142,1.83317 -0.40034,0.96927 -1.36961,1.66461 -1.26426,0.884981 -3.18172,0.884981 z"
           id="path18" />
      </g>
    </g>
  </g>
</svg>
